# xmcd CD database file
#
# Track frame offsets:
#	150
#	15230
#	30655
#	49865
#	70562
#	83746
#	101806
#	118712
#	131879
#	147812
#	164568
#	180442
#	194887
#
# Disc length: 2785 seconds
#
# Revision: 0
# Processed by: cddbd v1.5.1PL0 Copyright (c) Steve Scherf et al.
# Submitted via: CD2WAV32(JP) R3.22
#
DISCID=b20adf0d
DTITLE=Brendan Benson - The Alternative To Love
DYEAR=2005
DGENRE=AlternRock
TTITLE0=Spit It Out
TTITLE1=Cold Hands (Warm Heart)
TTITLE2=Feel Like Myself
TTITLE3=Alternative To Love
TTITLE4=The Pledge
TTITLE5=Them And Me
TTITLE6=Biggest Fan
TTITLE7=Flesh And Bone
TTITLE8=Get It Together
TTITLE9=Gold Into Straw
TTITLE10=What I'm Looking For
TTITLE11=Between Us
TTITLE12=Baby On A Rug
EXTD=
EXTT0=
EXTT1=
EXTT2=
EXTT3=
EXTT4=
EXTT5=
EXTT6=
EXTT7=
EXTT8=
EXTT9=
EXTT10=
EXTT11=
EXTT12=
PLAYORDER=
